# xmcd
# 
# Track frame offsets:
#     150
#     22739
#     51538
#     70221
#     86448
#     102283
#     110630
#     126065
#     139981
#     166324
#     180231
#     199226
#     218650
# 
# Disc length: 3172
# 
# Revision: 1
# Processed by: cddbd v1.5.2PL0 Copyright (c) Steve Scherf et al.
# Submitted via: BonkEnc v1.0.8
# 
DISCID=b30c620d
DTITLE=Andreas Willers - Experience
DYEAR=1995
DGENRE=Contemporary Jazz
TTITLE0=Burning Of The Midnight Lamp
TTITLE1=Castles Made Of Sand
TTITLE2=Manic Depression
TTITLE3=Angel
TTITLE4=If Six Was Nine
TTITLE5=Sept. 21st, 1966
TTITLE6=Tricons
TTITLE7=Purple Haze
TTITLE8=Voodoo Chile
TTITLE9=Foxy Lady
TTITLE10=Burglar King
TTITLE11=Crack House Blues
TTITLE12=Who Knows
EXTD=
EXTT0=
EXTT1=
EXTT2=
EXTT3=
EXTT4=
EXTT5=
EXTT6=
EXTT7=
EXTT8=
EXTT9=
EXTT10=
EXTT11=
EXTT12=
PLAYORDER=
